<?xml version="1.0" standalone="no"?>
<!DOCTYPE svg PUBLIC "-//W3C//DTD SVG 20010904//EN"
 "http://www.w3.org/TR/2001/REC-SVG-20010904/DTD/svg10.dtd">
<svg version="1.0" xmlns="http://www.w3.org/2000/svg"
 width="558.000000pt" height="558.000000pt" viewBox="0 0 558.000000 558.000000"
 preserveAspectRatio="xMidYMid meet">
<metadata>
Created by potrace 1.11, written by Peter Selinger 2001-2013
</metadata>
<g transform="translate(0.000000,558.000000) scale(0.100000,-0.100000)"
fill="#000000" stroke="none">
<path d="M0 2790 l0 -2790 2790 0 2790 0 0 2790 0 2790 -2790 0 -2790 0 0
-2790z m1418 173 l2 -1043 555 0 555 0 0 -185 0 -185 -775 0 -775 0 0 1230 0
1230 218 -2 217 -3 3 -1042z m2667 1024 c314 -75 495 -270 512 -552 10 -168
-40 -298 -162 -421 -73 -74 -154 -123 -239 -145 -49 -12 -53 -29 -6 -29 41 0
157 -38 225 -73 91 -48 197 -158 240 -248 80 -170 86 -355 15 -538 -70 -178
-228 -317 -435 -381 -149 -45 -224 -50 -822 -50 l-563 0 0 1231 0 1230 583 -4
c498 -3 592 -6 652 -20z"/>
<path d="M3290 3314 l0 -346 263 5 c144 3 285 10 312 16 130 28 247 121 281
223 22 66 21 172 -2 240 -23 71 -99 147 -179 179 -58 23 -71 24 -367 27 l-308
3 0 -347z"/>
<path d="M3290 2276 l0 -386 248 0 c373 0 494 20 597 98 99 75 142 180 133
320 -12 173 -102 274 -293 328 -49 14 -117 18 -372 22 l-313 4 0 -386z"/>
</g>
</svg>
